<svg width="25" height="25" viewBox="0 0 25 25" fill="none" xmlns="http://www.w3.org/2000/svg">
<path d="M2.77778 25C2.01389 25 1.35972 24.7282 0.815278 24.1847C0.271759 23.6403 0 22.9861 0 22.2222V2.77778C0 2.01389 0.271759 1.35972 0.815278 0.815278C1.35972 0.271759 2.01389 0 2.77778 0H22.2222C22.9861 0 23.6403 0.271759 24.1847 0.815278C24.7282 1.35972 25 2.01389 25 2.77778V22.2222C25 22.9861 24.7282 23.6403 24.1847 24.1847C23.6403 24.7282 22.9861 25 22.2222 25H2.77778ZM2.77778 22.2222H11.1111V2.77778H2.77778V22.2222ZM13.8889 22.2222H22.2222V12.5H13.8889V22.2222ZM13.8889 9.72222H22.2222V2.77778H13.8889V9.72222Z" fill="black"/>
</svg>
