<svg width="25" height="26" viewBox="0 0 25 26" fill="none" xmlns="http://www.w3.org/2000/svg">
<path d="M12.5 25.9375C10.0277 25.9375 7.61099 25.2044 5.55538 23.8309C3.49976 22.4574 1.89761 20.5051 0.951511 18.221C0.00541604 15.937 -0.242126 13.4236 0.24019 10.9989C0.722505 8.57411 1.91301 6.34683 3.66117 4.59867C5.40933 2.85051 7.63661 1.66 10.0614 1.17769C12.4861 0.695374 14.9995 0.942916 17.2835 1.88901C19.5676 2.83511 21.5199 4.43726 22.8934 6.49288C24.2669 8.54849 25 10.9652 25 13.4375C25 16.7527 23.683 19.9321 21.3388 22.2763C18.9946 24.6205 15.8152 25.9375 12.5 25.9375ZM12.5 2.72322C10.3809 2.72322 8.30942 3.3516 6.54747 4.5289C4.78551 5.7062 3.41223 7.37955 2.6013 9.33732C1.79036 11.2951 1.57818 13.4494 1.99159 15.5278C2.405 17.6061 3.42544 19.5152 4.92386 21.0136C6.42228 22.5121 8.33138 23.5325 10.4098 23.9459C12.4881 24.3593 14.6424 24.1471 16.6002 23.3362C18.558 22.5253 20.2313 21.152 21.4086 19.39C22.5859 17.6281 23.2143 15.5566 23.2143 13.4375C23.2143 10.5959 22.0855 7.87068 20.0761 5.86136C18.0668 3.85204 15.3416 2.72322 12.5 2.72322Z" fill="black"/>
<path d="M16.598 18.7946L11.6069 13.8036V5.40179H13.3926V13.0625L17.8569 17.5357L16.598 18.7946Z" fill="black"/>
</svg>
