<svg width="25" height="26" viewBox="0 0 25 26" fill="none" xmlns="http://www.w3.org/2000/svg">
<path d="M18.2692 0.9375C19.5443 0.9375 20.7672 1.44402 21.6688 2.34564C22.5704 3.24726 23.0769 4.47011 23.0769 5.74519V9.28558C22.5834 8.54319 21.9253 7.9246 21.1538 7.47788V5.74519C21.1538 4.98014 20.8499 4.24643 20.309 3.70546C19.768 3.16449 19.0343 2.86058 18.2692 2.86058H4.80769C4.04264 2.86058 3.30893 3.16449 2.76796 3.70546C2.22699 4.24643 1.92308 4.98014 1.92308 5.74519V6.70673H17.3077V6.78558C16.0177 7.00334 14.8403 7.65376 13.9692 8.62981H1.92308V19.2067C1.92308 19.9718 2.22699 20.7055 2.76796 21.2465C3.30893 21.7874 4.04264 22.0913 4.80769 22.0913H9.68846C9.79038 22.751 9.99808 23.401 10.3231 24.0144H4.80769C3.53261 24.0144 2.30976 23.5079 1.40814 22.6063C0.506523 21.7047 0 20.4818 0 19.2067V5.74519C0 4.47011 0.506523 3.24726 1.40814 2.34564C2.30976 1.44402 3.53261 0.9375 4.80769 0.9375H18.2692ZM22.1154 12.476C22.1154 13.496 21.7102 14.4743 20.9889 15.1956C20.2676 15.9169 19.2893 16.3221 18.2692 16.3221C17.2492 16.3221 16.2709 15.9169 15.5496 15.1956C14.8283 14.4743 14.4231 13.496 14.4231 12.476C14.4231 11.4559 14.8283 10.4776 15.5496 9.75632C16.2709 9.03503 17.2492 8.62981 18.2692 8.62981C19.2893 8.62981 20.2676 9.03503 20.9889 9.75632C21.7102 10.4776 22.1154 11.4559 22.1154 12.476ZM25 21.1298C25 23.524 23.0769 25.9375 18.2692 25.9375C13.4615 25.9375 11.5385 23.5337 11.5385 21.1298C11.5385 20.3648 11.8424 19.631 12.3833 19.0901C12.9243 18.5491 13.658 18.2452 14.4231 18.2452H22.1154C22.8804 18.2452 23.6141 18.5491 24.1551 19.0901C24.6961 19.631 25 20.3648 25 21.1298Z" fill="black"/>
</svg>
